<!-- Generator: Adobe Illustrator 21.1.0, SVG Export Plug-In  -->
<svg version="1.1"
	 xmlns="http://www.w3.org/2000/svg" xmlns:xlink="http://www.w3.org/1999/xlink" xmlns:a="http://ns.adobe.com/AdobeSVGViewerExtensions/3.0/"
	 x="0px" y="0px" width="149.8px" height="176.4px" viewBox="0 0 149.8 176.4" style="enable-background:new 0 0 149.8 176.4;"
	 xml:space="preserve">
<style type="text/css">
	.st0{fill:#B2D235;}
	.st1{fill:#FFFFFF;}
</style>
<defs>
</defs>
<path class="st0" d="M76.3,34.2c-2.3,0-2.9-0.1-0.9-0.1c3,0,6,0.6,8.9,1.4c5.8,1.6,11,4.5,15.5,8.5c5.8,5.1,9.9,11.4,12.1,18.9
	c1.4,4.7,1.9,9.4,1.6,14.3c-0.4,6.7-2.5,12.9-5.6,18.8c-4.2,8-7.9,16.3-10.6,25c-1.1,3.5-2,7-2.4,10.6c-0.2,1.3-0.2,2.6-0.3,3.9
	c-0.2,2.1-0.4,4.2-0.8,6.3c-0.3,1.4-1,2.6-2,3.7c-1.2,1.3-2.8,1.9-4.5,1.9c-9.2,0-18.3,0-27.5,0c-3,0-4.8-1.7-6-4.3
	c-0.7-1.5-1-3.2-1-4.8c-0.2-7.9-2.1-15.5-4.9-22.9c-2.5-6.8-5.5-13.4-8.9-19.9c-1.9-3.7-3.6-7.4-4.5-11.5c-0.6-2.5-1-5-1-7.6
	c0-1.9,0-3.9,0.1-5.8c0.3-3.9,1.2-7.6,2.8-11.2c1.1-2.4,2.4-4.8,3.8-7.1c0.9-1.5,2-2.9,3.2-4.2c5.7-6.1,12.3-10.5,20.5-12.5
	c3.7-0.9,7.5-1.3,11.4-1.2C75.7,34.2,76,34.2,76.3,34.2C76.3,34.2,76.3,34.2,76.3,34.2z"/>
<g>
	<path class="st0" d="M73.6,28.7c-1.5-1.2-2.5-2.4-3.5-3.6c0.1-1.2,0-2.4,0-3.6v-7.2V7.2V3.6c1.1-1.2,2.1-2.4,3.5-3.6
		c1.4,1.2,2.4,2.4,3.5,3.6v3.6v7.2v7.2c0,1.2,0,2.4,0,3.6C76.1,26.3,75.1,27.5,73.6,28.7z"/>
</g>
<g>
	<path class="st0" d="M110.9,43.9c-0.2-1.9-0.1-3.5,0-5c0.9-0.8,1.7-1.7,2.6-2.5l5.1-5.1l5.1-5.1l2.5-2.5c1.6-0.1,3.2-0.2,5-0.1
		c0.1,1.8,0,3.4-0.1,5l-2.5,2.5l-5.1,5.1l-5.1,5.1c-0.8,0.9-1.7,1.7-2.5,2.6C114.4,44,112.8,44.1,110.9,43.9z"/>
</g>
<g>
	<path class="st0" d="M36.3,43.9c-1.9,0.2-3.5,0.1-5,0c-0.8-0.9-1.7-1.7-2.5-2.6l-5.1-5.1l-5.1-5.1l-2.5-2.5c-0.1-1.6-0.2-3.2-0.1-5
		c1.8-0.1,3.4,0,5,0.1l2.5,2.5l5.1,5.1l5.1,5.1c0.9,0.8,1.7,1.7,2.6,2.5C36.4,40.5,36.5,42.1,36.3,43.9z"/>
</g>
<g>
	<path class="st0" d="M28.7,73.7c-1.2,1.5-2.4,2.5-3.6,3.5c-1.2-0.1-2.4,0-3.6,0h-7.2H7.2H3.6c-1.2-1.1-2.4-2.1-3.6-3.5
		c1.2-1.4,2.4-2.4,3.6-3.5h3.6h7.2h7.2c1.2,0,2.4,0,3.6,0C26.3,71.2,27.5,72.3,28.7,73.7z"/>
</g>
<g>
	<path class="st0" d="M149.8,73.7c-1.2,1.5-2.4,2.5-3.6,3.5c-1.2-0.1-2.4,0-3.6,0h-7.2h-7.2h-3.6c-1.2-1.1-2.4-2.1-3.6-3.5
		c1.2-1.4,2.4-2.4,3.6-3.5h3.6h7.2h7.2c1.2,0,2.4,0,3.6,0C147.4,71.2,148.6,72.3,149.8,73.7z"/>
</g>
<g>
	<path class="st1" d="M76.2,34.1c-2.3,0-4.6,0-6.8,0c0,0,3.9-0.1,5.9-0.1c3,0,6,0.6,8.9,1.4c5.8,1.6,11,4.5,15.5,8.5
		c5.8,5.1,9.9,11.4,12.1,18.9c1.4,4.7,1.9,9.4,1.6,14.3c-0.4,6.7-2.5,12.9-5.6,18.8c-4.2,8-7.9,16.3-10.6,25c-1.1,3.5-2,7-2.4,10.6
		c-0.2,1.3-0.2,2.6-0.3,3.9c-0.2,2.1-0.4,4.2-0.8,6.3c-0.3,1.4-1,2.6-2,3.7c-1.2,1.3-2.8,1.9-4.5,1.9c-9.2,0-18.3,0-27.5,0
		c-3,0-4.8-1.7-6-4.3c-0.7-1.5-1-3.2-1-4.8c-0.2-7.9-2.1-15.5-4.9-22.9c-2.5-6.8-5.5-13.4-8.9-19.9c-1.9-3.7-3.6-7.4-4.5-11.5
		c-0.6-2.5-1-5-1-7.6c0-1.9,0-3.9,0.1-5.8c0.3-3.9,1.2-7.6,2.8-11.2c1.1-2.4,2.4-4.8,3.8-7.1c0.9-1.5,2-2.9,3.2-4.2
		c5.7-6.1,12.3-10.5,20.5-12.5c3.7-0.9,7.5-1.3,11.4-1.2C75.6,34.2,75.9,34.2,76.2,34.1C76.2,34.2,76.2,34.1,76.2,34.1z M82.5,100
		c1.6-1.9,3.2-3.8,4.7-5.8c1.4-1.8,2.3-3.7,2.8-5.9c0.1-0.3,0.1-0.6,0.2-0.8c0.2-1.5-0.3-2.4-1.7-3.1c-1.4-0.7-2.7-0.4-4,0.8
		c-1.1,1-1.9,2.2-2.6,3.4c-1.8,3.2-2.9,6.7-3.9,10.2c-0.5,1.8-1,3.7-1.4,5.6c0,0.1-0.3,0.4,0.1,0.5c0,0,0,0.1-0.1,0.1c0,0,0,0,0,0.1
		c0.1-0.1,0.3-0.1,0.4-0.2c1.9-1.2,3.7-2.6,5.2-4.3C82.4,100.3,82.4,100.1,82.5,100z M101.9,99.1c0.5-1,1-2.1,1.5-3.1
		c0.2-0.5,0.5-1.1,0.7-1.6c0.1-0.2,0.2-0.3,0.3-0.5c0.6-1.2,1.2-2.5,1.7-3.7c0.3-0.7,0.6-1.4,0.9-2.2c1.4-3.9,2.3-7.8,2.4-12
		c0.1-3-0.1-6-0.7-8.9c-1.7-8.4-5.9-15.3-12.4-20.8c-5.8-4.9-12.5-7.6-20-8.2c-3.4-0.3-6.9-0.1-10.2,0.7
		c-9.7,2.1-17.3,7.4-22.7,15.7c-5.1,7.7-6.8,16.1-5.6,25.2c0.6,4.3,1.9,8.3,3.9,12.1c4.4,8.5,8.4,17.1,11.4,26.2
		c1.3,3.9,2.4,7.8,2.9,11.8c0.4,2.9,0.5,5.7,0.8,8.6c0.1,1.2,0.3,2.3,0.9,3.4c0.5,0.9,1.2,1.3,2.3,1.3c3.7,0,7.4,0,11.1,0
		c0.2,0,0.4,0,0.5,0c0-2.2,0-4.2,0-6.3c0-8.3-0.1-16.7-0.7-25c-0.1-0.9,0-0.9-0.9-1.2c-0.2-0.1-0.5-0.1-0.7-0.3
		c-1.7-1-3.5-1.9-5.2-3c-3.5-2.2-6.1-5.2-7.5-9.1c-1.5-4.2-1.7-8.4,1-12.4c0.2-0.1,0.4-0.2,0.5-0.4c0.9-1,2.1-1.7,3.5-1.9
		c0.3,0,0.6-0.1,0.9-0.1c0,0,0,0,0-0.1c-0.4,0-0.8,0-1.2,0c0.6,0,1.1-0.1,1.7-0.1c2.1,0.3,3.7,1.6,5,3.2c2.4,3,3.8,6.4,4.8,10
		c0.3,1.2,0.6,2.5,0.8,3.7c1.2-3.8,2-7.8,4.1-11.2c0.9-1.6,1.8-3.2,2.7-4.8c0.2-0.1,0.4-0.2,0.5-0.4c1.2-1.5,2.6-2.7,4.5-3.2
		c0.7-0.2,1.4-0.3,2.1-0.4c0,0,0,0,0,0c-0.6,0-1.2,0.1-1.8,0.1c0.4-0.1,0.9-0.2,1.3-0.2c1.8,0,3.4,0.6,4.8,1.6
		c1.6,1.2,2.4,2.8,2.5,4.8c0.1,1.7-0.3,3.4-1,4.9c-1.2,2.9-3,5.5-4.9,8c-3.5,4.4-7.6,8.2-12.6,10.8c-0.2,0.1-0.3,0.3-0.4,0.4
		c-0.1,0.8-0.3,1.5-0.2,2.3c0.1,4.3,0.4,8.6,0.5,13c0.1,5.6,0.1,11.1,0.1,16.7c0,0.2,0,0.4,0,0.6c4.1,0,8.2,0,12.2,0
		c-0.3,0-0.6,0.1-0.9,0.1c-3.5,0-7,0-10.5,0c-0.2,0-0.4,0-0.6,0c0,0,0,0.1,0,0.1c0.1,0,0.2,0,0.3,0c3.7,0,7.4,0,11.1,0
		c0.2,0,0.4,0,0.6,0c0.6-0.2,1.2-0.4,1.4-1.2c0.2-0.5,0.5-1,0.6-1.5c0.2-1.7,0.5-3.4,0.6-5c0.1-3.5,0.6-7,1.4-10.4
		c1.4-6.1,3.6-11.9,6-17.7c0.4-1.1,1-2.1,1.5-3.2c0.2-0.3,0.2-0.7,0.3-1.1c0.3-0.6,0.6-1.2,1-1.8C101.1,100.6,101.5,99.8,101.9,99.1
		z M70.3,106.5c0-0.3,0-0.3,0-0.4c-0.4-2.3-0.7-4.6-1.1-6.8c-0.7-3.4-1.9-6.5-3.9-9.3c-0.6-0.9-1.4-1.6-2.2-2.3
		c-0.7-0.6-1.5-0.5-2,0.1c-0.5,0.5-0.9,1.1-1.1,1.8c-1,2.9-0.5,5.6,0.7,8.3c1.4,2.9,3.6,5.1,6.3,6.7
		C68.1,105.1,69.2,105.8,70.3,106.5z M71.6,143.3C71.6,143.3,71.6,143.2,71.6,143.3c-4-0.1-8-0.1-12.1-0.1c0,0,0,0,0,0.1
		C63.6,143.3,67.6,143.3,71.6,143.3z"/>
	<path class="st1" d="M88.2,155.4c1.7,0.6,2.7,1.7,2.7,3.4c0,1.8-1,2.9-2.7,3.6c1.6,0.5,2.5,1.5,2.7,3.1c0.2,2-1.4,3.9-3.4,3.9
		c-3.1,0-6.2,0-9.3,0c-6.1,0-12.2,0-18.3,0c-1.9,0-3.2-1.1-3.6-3c-0.3-1.7,0.5-2.6,2.1-3.6c0.2-0.1,0.4-0.2,0.7-0.3
		c-0.3-0.2-0.5-0.3-0.7-0.4c-1.8-0.8-2.7-2.7-2-4.4c0.3-0.9,1-1.5,1.9-1.9c0.2-0.1,0.4-0.2,0.7-0.4c-1.6-0.5-2.5-1.5-2.7-3
		c-0.1-0.8,0-1.7,0.5-2.2c0.8-0.8,1.8-1.6,3-1.6c0.3,0,0.6,0,0.9,0c8.7,0,17.4,0,26.1,0c0.3,0,0.6,0,1,0c0,0,0-0.1,0-0.1
		c-9.5,0-19,0-28.5,0c0,0,0-0.1,0-0.1c0.3,0,0.5,0,0.8,0c9.1,0,18.2,0,27.3,0c1.6,0,3.2,1.1,3.6,2.8c0.4,1.7-0.6,3.4-2.2,4
		C88.5,155.3,88.4,155.3,88.2,155.4z M79.3,164.6c-0.4,0.1-0.8,0.2-1.1,0.2c-4.7,0-9.4,0-14.1,0c-0.2,0-0.4,0-0.6,0c0,0,0,0.1,0,0.1
		c0.3,0,0.5,0,0.8,0c4.6,0,9.3,0,13.9,0c0.2,0,0.5,0,0.7,0c0.6-0.1,1.2-0.3,1.5-0.9c0,0-0.1-0.1-0.1-0.1c0.1-0.4,0.3-0.9,0.3-1.3
		c-0.1-1.1-0.8-1.7-2.1-1.7c-4.9,0-9.7,0-14.6,0c-0.2,0-0.3,0-0.5,0c-0.9,0.1-1.6,0.8-1.7,1.7c-0.1,1,0.5,1.8,1.4,2
		c0.3,0.1,0.6,0.1,1,0.1c4.3,0,8.6,0,13,0C77.8,164.7,78.6,164.7,79.3,164.6z M63.3,156.9c0,0,0,0.1,0,0.1c0.2,0,0.4,0,0.6,0
		c6.6,0,13.2,0,19.7,0c1.4,0,1.8-0.3,2.1-1.6c0.2-0.8-0.1-1.8-0.9-2.2c-0.4-0.2-0.8-0.2-1.2-0.2c-6.7,0-13.4,0-20.1,0
		c-0.3,0-0.6,0-0.8,0.1c-0.7,0.2-1.1,0.6-1.3,1.3c-0.3,1.2,0.6,2.4,1.9,2.4c6.8,0,13.7,0,20.5,0c0.2,0,0.4,0,0.5,0c0,0,0,0.1,0,0.1
		C77.3,156.9,70.3,156.9,63.3,156.9z"/>
	<path class="st1" d="M62.5,170.7c7.2,0,14.3,0,21.4,0c0,0,0,0,0,0c-6.9,0-13.7,0-20.6,0c0,0,0-0.1,0-0.1c7.1,0,14.2,0,21.5,0
		c-2.4,3.2-5.5,5.2-9.3,5.6C70,176.9,65.8,174.9,62.5,170.7z"/>
	<path class="st1" d="M46.2,44.9c-0.5,0.5-1,1-1.6,1.4c0,0,0.1,0.1,0.1,0.1C45.3,46,45.8,45.5,46.2,44.9C46.2,45,46.2,45,46.2,44.9z
		"/>
	<path class="st1" d="M87.9,143.1c0.5-0.3,1-0.7,1.5-1c-0.1,0.8-0.8,1-1.4,1.2c-0.2,0.1-0.4,0-0.6,0c-3.7,0-7.4,0-11.1,0
		c-0.1,0-0.2,0-0.3,0c0,0,0-0.1,0-0.1c0.2,0,0.4,0,0.6,0c3.5,0,7,0,10.5,0C87.3,143.2,87.6,143.1,87.9,143.1z"/>
	<path class="st1" d="M76.7,104.8c0.7-0.5,1.4-1,2.1-1.5c0.9-0.8,1.8-1.6,2.8-2.5c0.3-0.3,0.6-0.6,0.9-0.8c-0.1,0.2-0.1,0.3-0.2,0.5
		c-1.5,1.7-3.2,3.1-5.2,4.3c-0.1,0.1-0.3,0.1-0.4,0.2C76.7,104.9,76.7,104.9,76.7,104.8C76.7,104.8,76.7,104.8,76.7,104.8z"/>
	<path class="st1" d="M71.6,143.3c-4,0-8,0-12.1,0c0,0,0,0,0-0.1C63.6,143.2,67.6,143.2,71.6,143.3
		C71.6,143.2,71.6,143.3,71.6,143.3z"/>
	<path class="st1" d="M79.3,164.6c0.3-0.2,0.6-0.5,0.9-0.7c0,0,0.1,0.1,0.1,0.1c-0.4,0.5-0.9,0.8-1.5,0.9c-0.2,0-0.5,0-0.7,0
		c-4.6,0-9.3,0-13.9,0c-0.3,0-0.5,0-0.8,0c0,0,0-0.1,0-0.1c0.2,0,0.4,0,0.6,0c4.7,0,9.4,0,14.1,0C78.6,164.8,78.9,164.7,79.3,164.6z
		"/>
</g>
</svg>
