<!-- Generator: Adobe Illustrator 21.1.0, SVG Export Plug-In  -->
<svg version="1.1"
	 xmlns="http://www.w3.org/2000/svg" xmlns:xlink="http://www.w3.org/1999/xlink" xmlns:a="http://ns.adobe.com/AdobeSVGViewerExtensions/3.0/"
	 x="0px" y="0px" width="1250px" height="937px" viewBox="0 0 1250 937" style="enable-background:new 0 0 1250 937;"
	 xml:space="preserve">
<style type="text/css">
	.st0{fill:#1C2344;}
	.st1{fill:#EEEDEE;}
	.st2{fill:#F6F5F6;}
	.st3{fill:#9DC23C;}
	.st4{fill:#00B5CC;}
	.st5{fill:#F59E20;}
	.st6{fill:#010101;}
	.st7{fill:#D3D3D3;}
	.st8{fill:#3FC6EE;}
	.st9{fill:#989A9B;}
	.st10{fill:#EDEDEE;}
	.st11{fill:#383938;}
	.st12{font-family:'OpenSans';}
	.st13{font-size:16px;}
	.st14{fill:#FFFFFF;}
	.st15{fill:#1A2344;stroke:#FFFFFF;stroke-width:4;stroke-miterlimit:10;}
	.st16{fill:#1B2344;stroke:#FFFFFF;stroke-width:4;stroke-miterlimit:10;}
</style>
<defs>
</defs>
<g>
	<rect x="0" class="st0" width="1250" height="937"/>
	<g>
		<rect x="0" class="st1" width="1250" height="27"/>
		<rect y="879" class="st2" width="1250" height="58"/>
		<g>
			<path class="st3" d="M16.6,18.9c0,0.4,0.3,0.9,0.8,1l5.6,1.8c0.4,0.1,0.8-0.1,0.8-0.6v-8.6c0-0.4-0.3-0.9-0.8-1l-5.6-1.8
				c-0.4-0.1-0.8,0.1-0.8,0.6V18.9z"/>
			<path class="st4" d="M25.5,11.4c-0.4,0.1-0.8,0.6-0.8,1v8.6c0,0.4,0.3,0.7,0.8,0.6l5.6-1.8c0.4-0.1,0.8-0.6,0.8-1v-8.6
				c0-0.4-0.3-0.7-0.8-0.6L25.5,11.4z"/>
			<path class="st5" d="M25,6.3c-0.4-0.1-1.1-0.1-1.5,0l-6,2c-0.4,0.1-0.4,0.4,0,0.5l6,1.9c0.4,0.1,1.1,0.1,1.5,0l6-1.9
				c0.4-0.1,0.4-0.4,0-0.5L25,6.3z"/>
			<path class="st6" d="M87.4,21.7c-0.1,0.2-0.3,0.4-0.5,0.5c-0.2,0.1-0.4,0.1-0.7,0.1c-0.1,0-0.3,0-0.4-0.1c-0.1,0-0.3-0.1-0.4-0.1
				c-0.3,0-0.6,0.1-0.8,0.2c-0.2,0.2-0.3,0.4-0.3,0.7c0,0.4,0.2,0.7,0.6,0.9c0.4,0.2,0.9,0.2,1.7,0.2c0.8,0,1.4-0.1,1.8-0.4
				c0.4-0.2,0.8-0.6,1.1-1c0.3-0.4,0.6-1,0.8-1.8l3.3-8.7c0.1-0.2,0.1-0.4,0.2-0.7c0.1-0.2,0.1-0.4,0.1-0.5c0-0.2,0-0.4-0.1-0.5
				c-0.1-0.2-0.2-0.3-0.4-0.4c-0.2-0.1-0.4-0.2-0.6-0.2c-0.3,0-0.5,0-0.6,0.1c-0.1,0.1-0.3,0.3-0.4,0.5c-0.1,0.3-0.3,0.6-0.4,1.1
				l-2,5.8l-2.2-6.3c-0.1-0.4-0.3-0.8-0.5-1c-0.2-0.2-0.5-0.3-0.8-0.3c-0.2,0-0.4,0.1-0.6,0.2c-0.2,0.1-0.4,0.3-0.5,0.4
				c-0.1,0.2-0.2,0.4-0.2,0.6c0,0.2,0.1,0.5,0.3,1l3.1,7.9l-0.2,0.6C87.7,21.2,87.5,21.5,87.4,21.7 M77.1,13.5
				c0.2-0.5,0.5-0.9,0.9-1.1c0.4-0.3,0.8-0.4,1.2-0.4c0.4,0,0.9,0.1,1.2,0.4c0.4,0.3,0.7,0.6,0.9,1.1c0.2,0.5,0.3,1.1,0.3,1.7
				c0,0.7-0.1,1.3-0.3,1.8c-0.2,0.5-0.5,0.8-0.9,1.1c-0.4,0.2-0.8,0.3-1.2,0.3c-0.4,0-0.8-0.1-1.2-0.4c-0.4-0.2-0.7-0.6-0.9-1.1
				c-0.2-0.5-0.3-1.1-0.3-1.8C76.8,14.6,76.9,14,77.1,13.5 M82.2,20.1c0.2,0.3,0.5,0.4,0.9,0.4c0.4,0,0.6-0.1,0.9-0.4
				c0.2-0.2,0.3-0.6,0.3-1.1V7.8c0-0.5-0.1-0.8-0.3-1.1c-0.2-0.2-0.5-0.4-0.9-0.4c-0.4,0-0.7,0.1-0.9,0.4c-0.2,0.3-0.3,0.7-0.3,1.2
				v3.8c-0.5-0.5-1-0.9-1.5-1.2c-0.5-0.3-1.1-0.4-1.9-0.4c-1.3,0-2.3,0.4-3.1,1.3c-0.8,0.9-1.2,2.1-1.2,3.7c0,0.8,0.1,1.5,0.3,2.1
				c0.2,0.6,0.5,1.2,0.9,1.7c0.4,0.5,0.8,0.8,1.3,1.1c0.5,0.3,1.1,0.4,1.7,0.4c0.5,0,0.9-0.1,1.3-0.2c0.4-0.1,0.7-0.3,1.1-0.6
				c0.3-0.2,0.7-0.6,1-1V19C81.8,19.4,82,19.8,82.2,20.1 M71.3,15.7c0,0.9-0.1,1.5-0.3,1.9c-0.2,0.3-0.5,0.6-0.9,0.9
				c-0.4,0.2-0.9,0.3-1.4,0.3c-0.5,0-0.9-0.1-1.1-0.4c-0.3-0.3-0.4-0.6-0.4-1c0-0.4,0.1-0.7,0.4-0.9c0.2-0.2,0.5-0.3,0.8-0.4
				c0.3-0.1,0.8-0.2,1.5-0.3c0.7-0.2,1.3-0.3,1.6-0.4V15.7z M72.3,20.1c0.3,0.2,0.5,0.4,0.8,0.4c0.3,0,0.6-0.1,0.8-0.3
				c0.2-0.2,0.4-0.5,0.4-0.7c0-0.1-0.1-0.5-0.2-1c-0.2-0.5-0.2-1-0.2-1.5c0-0.5,0-1,0-1.4c0-0.4,0-0.9,0-1.5c0-0.9-0.1-1.7-0.4-2.3
				c-0.3-0.6-0.7-1-1.4-1.3c-0.6-0.3-1.5-0.4-2.6-0.4c-1,0-1.8,0.1-2.5,0.4c-0.7,0.3-1.2,0.6-1.5,1c-0.3,0.4-0.5,0.9-0.5,1.3
				c0,0.3,0.1,0.5,0.3,0.7c0.2,0.2,0.5,0.3,0.7,0.3c0.3,0,0.5-0.1,0.6-0.2c0.1-0.1,0.3-0.4,0.5-0.7c0.2-0.4,0.5-0.6,0.8-0.8
				c0.3-0.2,0.8-0.3,1.5-0.3c0.8,0,1.2,0.2,1.5,0.5c0.2,0.3,0.4,0.8,0.4,1.5c-0.5,0.2-1,0.3-1.5,0.4c-0.5,0.1-1,0.2-1.6,0.4
				c-0.6,0.1-1,0.2-1.2,0.3c-0.8,0.2-1.4,0.5-1.8,1c-0.4,0.5-0.7,1.1-0.7,1.8c0,0.5,0.1,1,0.4,1.4c0.3,0.4,0.6,0.8,1.1,1
				c0.5,0.3,1.1,0.4,1.7,0.4c0.7,0,1.4-0.1,1.9-0.4c0.6-0.2,1.2-0.6,1.8-1.1C71.7,19.5,72,19.8,72.3,20.1 M57.9,12.5
				c0.4-0.4,0.9-0.7,1.6-0.7c0.7,0,1.2,0.2,1.6,0.6c0.4,0.4,0.6,1.1,0.7,2h-4.6C57.2,13.6,57.5,12.9,57.9,12.5 M63.6,15.6
				c0.4-0.2,0.6-0.6,0.6-1.2c0-0.7-0.2-1.4-0.5-2c-0.4-0.7-0.9-1.2-1.6-1.6c-0.7-0.4-1.6-0.6-2.6-0.6c-0.8,0-1.5,0.1-2.1,0.4
				c-0.6,0.2-1.2,0.6-1.6,1.1c-0.4,0.5-0.8,1-1,1.7c-0.2,0.6-0.3,1.3-0.3,2.1c0,1.6,0.5,2.9,1.4,3.8c0.9,0.9,2.2,1.4,3.8,1.4
				c0.7,0,1.3-0.1,1.9-0.3c0.5-0.2,1-0.4,1.4-0.7c0.4-0.3,0.6-0.6,0.8-0.9C64,18.3,64,18,64,17.8c0-0.3-0.1-0.5-0.2-0.6
				c-0.2-0.1-0.4-0.2-0.6-0.2c-0.2,0-0.4,0.1-0.6,0.2c-0.3,0.3-0.6,0.5-0.8,0.7c-0.2,0.2-0.4,0.3-0.7,0.5c-0.2,0.2-0.5,0.3-0.7,0.3
				c-0.3,0.1-0.5,0.1-0.8,0.1c-0.5,0-0.9-0.1-1.2-0.3c-0.4-0.2-0.7-0.6-0.9-1c-0.2-0.4-0.3-1-0.3-1.5h5
				C62.8,15.9,63.3,15.8,63.6,15.6 M51,8.8c0.3,0.1,0.6,0.4,0.8,0.6c0.2,0.3,0.3,0.6,0.3,1c0,0.5-0.1,0.9-0.4,1.1
				c-0.2,0.3-0.6,0.5-1,0.6c-0.5,0.1-1,0.2-1.7,0.2h-2.5V8.6h2.6C50.1,8.6,50.7,8.7,51,8.8 M48.8,14.6c0.3,0.1,0.6,0.4,1,0.7
				c0.3,0.4,0.7,0.9,1.1,1.5l1.1,1.8c0.3,0.4,0.5,0.8,0.6,1c0.2,0.2,0.3,0.4,0.5,0.6c0.2,0.1,0.5,0.2,0.8,0.2c0.3,0,0.5-0.1,0.7-0.2
				c0.2-0.1,0.4-0.2,0.5-0.4c0.1-0.2,0.2-0.4,0.2-0.5c0-0.2-0.1-0.5-0.3-1c-0.2-0.5-0.5-1-0.8-1.6c-0.4-0.6-0.7-1.1-1.2-1.6
				c-0.4-0.5-0.9-0.9-1.4-1.2c1.2-0.3,2-0.7,2.6-1.3c0.6-0.6,0.9-1.4,0.9-2.4c0-0.5-0.1-1-0.3-1.4c-0.2-0.4-0.4-0.8-0.7-1.2
				c-0.3-0.3-0.7-0.6-1.1-0.8c-0.4-0.2-0.8-0.3-1.2-0.3c-0.4-0.1-1-0.1-1.6-0.1h-4.5c-0.6,0-1,0.1-1.3,0.4c-0.3,0.3-0.4,0.7-0.4,1.3
				v10.5c0,0.6,0.1,1,0.4,1.3c0.2,0.3,0.6,0.4,1,0.4c0.4,0,0.7-0.1,1-0.4c0.3-0.3,0.4-0.7,0.4-1.3v-4.4h1
				C48,14.4,48.4,14.4,48.8,14.6 M43,16.1c0.2-0.2,0.3-0.5,0.3-0.8c0-0.3-0.1-0.6-0.3-0.8c-0.2-0.2-0.6-0.3-1-0.3H39
				c-0.5,0-0.8,0.1-1,0.3c-0.2,0.2-0.3,0.5-0.3,0.8c0,0.3,0.1,0.6,0.3,0.8c0.2,0.2,0.6,0.3,1,0.3H42C42.4,16.4,42.8,16.3,43,16.1
				 M36.6,8.6C36.8,8.4,37,8.1,37,7.7c0-0.4-0.1-0.7-0.4-0.9c-0.3-0.2-0.5-0.3-0.9-0.3c-0.3,0-0.6,0.1-0.9,0.3
				c-0.3,0.2-0.4,0.5-0.4,0.9c0,0.4,0.1,0.7,0.4,0.9c0.3,0.2,0.6,0.3,0.9,0.3C36,8.9,36.3,8.8,36.6,8.6 M36.6,10.5
				c-0.2-0.3-0.5-0.4-0.9-0.4c-0.4,0-0.7,0.1-0.9,0.4c-0.2,0.3-0.3,0.6-0.3,1.1v7.3c0,0.5,0.1,0.9,0.3,1.1c0.2,0.3,0.5,0.4,0.9,0.4
				c0.4,0,0.7-0.1,0.9-0.4c0.2-0.3,0.4-0.6,0.4-1.2v-7.4C37,11.1,36.8,10.7,36.6,10.5"/>
		</g>
		<path class="st7" d="M905.8,916.7h-562c-4.9,0-9-4-9-9v0c0-4.9,4.1-9,9-9h562c5,0,9,4.1,9,9v0
			C914.8,912.7,910.8,916.7,905.8,916.7z"/>
		<path class="st8" d="M493.4,899.1H343.8c-5,0-9,4-9,9s4,9,9,9h149.6V899.1z"/>
		<rect x="678.6" y="896.1" class="st2" width="4" height="24"/>
		<rect x="498.1" y="898.7" class="st8" width="136.3" height="18"/>
		<g>
			<circle class="st9" cx="197.8" cy="908.2" r="20"/>
			<g>
				<path class="st10" d="M197.5,908.2c0,2.9,0,5.8,0,8.7c0,0.6-0.1,1.2-0.7,1.6c-0.6,0.5-1.5,0.4-2.1-0.1c-0.8-0.6-1.5-1.4-2.3-2
					c-0.8-0.7-1.7-1.3-2.6-2c-0.5-0.4-1.2-0.5-1.9-0.5c-0.9,0-1.7,0-2.6,0c-0.4,0-0.6-0.1-0.8-0.4c-0.5-0.7-0.7-1.5-0.8-2.3
					c-0.4-2.2-0.4-4.4,0.2-6.6c0.1-0.6,0.4-1.1,0.7-1.6c0.2-0.4,0.6-0.6,1-0.5c0.7,0,1.4,0,2.1,0c1.3,0.1,2.4-0.3,3.3-1.1
					c1.2-1,2.4-2,3.6-3.1c0.5-0.4,1-0.7,1.6-0.6c0.9,0.1,1.4,0.7,1.4,1.8C197.5,902.3,197.5,905.3,197.5,908.2z"/>
				<path class="st10" d="M212.2,908.3c0,3.9-1.4,7.2-4.1,10c-0.5,0.5-1,0.7-1.7,0.5c-0.5-0.2-0.9-0.6-0.9-1.2
					c-0.1-0.5,0.2-1,0.5-1.3c1.5-1.6,2.5-3.4,3-5.5c0.7-3.5,0-6.8-2.2-9.6c-0.3-0.4-0.6-0.7-0.9-1.1c-0.5-0.6-0.5-1.5,0-2
					c0.6-0.6,1.4-0.6,2.1,0c1.3,1.3,2.4,2.9,3.1,4.6C211.9,904.5,212.3,906.3,212.2,908.3z"/>
				<path class="st10" d="M206.3,908.2c-0.1,2.5-1,4.7-2.7,6.6c-0.6,0.6-1.4,0.7-2,0.2c-0.6-0.6-0.7-1.4-0.1-2
					c0.9-1,1.6-2.2,1.8-3.5c0.4-2.2-0.3-4.2-1.8-5.8c-0.8-0.8-0.4-2.1,0.7-2.3c0.5-0.1,0.9,0.1,1.3,0.4c1.2,1.2,2,2.7,2.4,4.3
					C206.1,906.7,206.2,907.5,206.3,908.2z"/>
			</g>
		</g>
		<g>
			<circle class="st9" cx="1053.5" cy="908.1" r="20"/>
			<g>
				<path class="st10" d="M1049.3,921.6h-0.7c-1,0-1.8-0.8-1.8-1.8v-23.3c0-1,0.8-1.8,1.8-1.8h0.7c1,0,1.8,0.8,1.8,1.8v23.3
					C1051.2,920.8,1050.3,921.6,1049.3,921.6z"/>
				<path class="st10" d="M1058.3,921.6h-0.7c-1,0-1.8-0.8-1.8-1.8v-23.3c0-1,0.8-1.8,1.8-1.8h0.7c1,0,1.8,0.8,1.8,1.8v23.3
					C1060.2,920.8,1059.3,921.6,1058.3,921.6z"/>
			</g>
		</g>
		<g>
			<polygon class="st7" points="954.5,907.7 930.7,921.5 930.7,893.9 			"/>
			<rect x="952.6" y="893.9" class="st7" width="3.9" height="27.6"/>
		</g>
		<g>
			<polygon class="st9" points="294.5,907.7 318.3,921.5 318.3,893.9 			"/>
			
				<rect x="292.5" y="893.9" transform="matrix(-1 -4.641855e-11 4.641855e-11 -1 588.9047 1815.406)" class="st9" width="3.9" height="27.6"/>
		</g>
		<rect x="493.8" y="896.1" class="st2" width="4" height="24"/>
		<g>
			<circle class="st9" cx="1129.5" cy="908.2" r="20"/>
		</g>
		<g>
			<path class="st10" d="M1137.2,899.2c-0.4-1-1-1.8-1.8-2.4c-0.8-0.6-1.6-1.1-2.6-1.5c-1-0.3-2.1-0.5-3.3-0.5
				c-1.4,0-2.7,0.2-3.8,0.7c-1.1,0.4-2.1,1.1-2.9,1.9c-0.8,0.8-1.4,1.8-1.8,2.9c-0.4,1.1-0.6,2.4-0.6,3.7c0,0,0,0,0,0v0.3
				c0,0.4,0.3,0.7,0.7,0.7h3c0.4,0,0.7-0.3,0.7-0.7V904h0c0-1.7,0.4-3.1,1.1-4.1c0.8-1,1.9-1.5,3.5-1.5c0.3,0,0.7,0.1,1.1,0.2
				c0.4,0.2,0.8,0.4,1.2,0.7c0.4,0.3,0.7,0.8,1,1.3c0.3,0.5,0.4,1.2,0.4,2c0,0.6-0.1,1.2-0.2,1.6c-0.2,0.5-0.4,0.9-0.7,1.2
				c-0.3,0.4-0.6,0.7-1,1c-0.4,0.3-0.8,0.6-1.2,1c-0.5,0.4-0.9,0.9-1.3,1.3c-0.4,0.4-0.7,1-0.9,1.5c-0.3,0.6-0.4,1.3-0.6,2
				c-0.1,0.8-0.2,1.7-0.2,2.8h0v0.1c0,0.4,0.3,0.7,0.7,0.7h2.7c0.4,0,0.7-0.3,0.7-0.7v-0.3c0,0,0,0,0,0c0-0.8,0.1-1.6,0.2-2.2
				c0.2-0.6,0.4-1.2,0.7-1.7c0.3-0.5,0.7-0.9,1.1-1.3c0.4-0.4,0.9-0.8,1.3-1.2c0.4-0.4,0.8-0.7,1.2-1.1c0.4-0.4,0.8-0.8,1.1-1.3
				c0.3-0.5,0.6-1,0.8-1.7c0.2-0.6,0.3-1.4,0.3-2.3C1137.8,901.2,1137.6,900.1,1137.2,899.2z"/>
			<path class="st10" d="M1130.7,918.6h-3.3c-0.4,0-0.7,0.3-0.7,0.7v2.3c0,0.4,0.3,0.7,0.7,0.7h3.3c0.4,0,0.7-0.3,0.7-0.7v-2.3
				C1131.5,918.9,1131.1,918.6,1130.7,918.6z"/>
		</g>
		<text transform="matrix(1 0 0 1 577.0002 20.152)" class="st11 st12 st13">Lesson Name</text>
		<g>
			
				<rect x="1232.7" y="5.5" transform="matrix(0.7071 -0.7071 0.7071 0.7071 351.4299 876.3324)" class="st11" width="1.7" height="16.8"/>
			
				<rect x="1232.7" y="5.5" transform="matrix(0.7071 0.7071 -0.7071 0.7071 371.1621 -868.159)" class="st11" width="1.7" height="16.8"/>
		</g>
	</g>
</g>
<g>
	<path class="st14" d="M1190.6,397.4c-2.3,0-4.6,0-6.8,0c0,0,0-0.1,0-0.1c2,0,3.9-0.1,5.9,0c3,0,6,0.6,8.9,1.4
		c5.8,1.6,11,4.5,15.5,8.5c5.8,5.1,9.9,11.4,12.1,18.9c1.4,4.7,1.9,9.4,1.6,14.3c-0.4,6.7-2.5,12.9-5.6,18.8
		c-4.2,8-7.9,16.3-10.6,25c-1.1,3.5-2,7-2.4,10.6c-0.2,1.3-0.2,2.6-0.3,3.9c-0.2,2.1-0.4,4.2-0.8,6.3c-0.3,1.4-1,2.6-2,3.7
		c-1.2,1.3-2.8,1.9-4.5,1.9c-9.2,0-18.3,0-27.5,0c-3,0-4.8-1.7-6-4.3c-0.7-1.5-1-3.2-1-4.8c-0.2-7.9-2.1-15.5-4.9-22.9
		c-2.5-6.8-5.5-13.4-8.9-19.9c-1.9-3.7-3.6-7.4-4.5-11.5c-0.6-2.5-1-5-1-7.6c0-1.9,0-3.9,0.1-5.8c0.3-3.9,1.2-7.6,2.8-11.2
		c1.1-2.4,2.4-4.8,3.8-7.1c0.9-1.5,2-2.9,3.2-4.2c5.7-6.1,12.3-10.5,20.5-12.5c3.7-0.9,7.5-1.3,11.4-1.2
		C1190,397.5,1190.3,397.5,1190.6,397.4C1190.6,397.5,1190.6,397.5,1190.6,397.4z M1196.9,463.3c1.6-1.9,3.2-3.8,4.7-5.8
		c1.4-1.8,2.3-3.7,2.8-5.9c0.1-0.3,0.1-0.6,0.2-0.8c0.2-1.5-0.3-2.4-1.7-3.1c-1.4-0.7-2.7-0.4-4,0.8c-1.1,1-1.9,2.2-2.6,3.4
		c-1.8,3.2-2.9,6.7-3.9,10.2c-0.5,1.8-1,3.7-1.4,5.6c0,0.1-0.3,0.4,0.1,0.5c0,0,0,0.1-0.1,0.1c0,0,0,0,0,0.1
		c0.1-0.1,0.3-0.1,0.4-0.2c1.9-1.2,3.7-2.6,5.2-4.3C1196.7,463.6,1196.8,463.5,1196.9,463.3z M1216.3,462.4c0.5-1,1-2.1,1.5-3.1
		c0.2-0.5,0.5-1.1,0.7-1.6c0.1-0.2,0.2-0.3,0.3-0.5c0.6-1.2,1.2-2.5,1.7-3.7c0.3-0.7,0.6-1.4,0.9-2.2c1.4-3.9,2.3-7.8,2.4-12
		c0.1-3-0.1-6-0.7-8.9c-1.7-8.4-5.9-15.3-12.4-20.8c-5.8-4.9-12.5-7.6-20-8.2c-3.4-0.3-6.9-0.1-10.2,0.7
		c-9.7,2.1-17.3,7.4-22.7,15.7c-5.1,7.7-6.8,16.1-5.6,25.2c0.6,4.3,1.9,8.3,3.9,12.1c4.4,8.5,8.4,17.1,11.4,26.2
		c1.3,3.9,2.4,7.8,2.9,11.8c0.4,2.9,0.5,5.7,0.8,8.6c0.1,1.2,0.3,2.3,0.9,3.4c0.5,0.9,1.2,1.3,2.3,1.3c3.7,0,7.4,0,11.1,0
		c0.2,0,0.4,0,0.5,0c0-2.2,0-4.2,0-6.3c0-8.3-0.1-16.7-0.7-25c-0.1-0.9,0-0.9-0.9-1.2c-0.2-0.1-0.5-0.1-0.7-0.3
		c-1.7-1-3.5-1.9-5.2-3c-3.5-2.2-6.1-5.2-7.5-9.1c-1.5-4.2-1.7-8.4,1-12.4c0.2-0.1,0.4-0.2,0.5-0.4c0.9-1,2.1-1.7,3.5-1.9
		c0.3,0,0.6-0.1,0.9-0.1c0,0,0,0,0-0.1c-0.4,0-0.8,0-1.2,0c0.6,0,1.1-0.1,1.7-0.1c2.1,0.3,3.7,1.6,5,3.2c2.4,3,3.8,6.4,4.8,10
		c0.3,1.2,0.6,2.5,0.8,3.7c1.2-3.8,2-7.8,4.1-11.2c0.9-1.6,1.8-3.2,2.7-4.8c0.2-0.1,0.4-0.2,0.5-0.4c1.2-1.5,2.6-2.7,4.5-3.2
		c0.7-0.2,1.4-0.3,2.1-0.4c0,0,0,0,0,0c-0.6,0-1.2,0.1-1.8,0.1c0.4-0.1,0.9-0.2,1.3-0.2c1.8,0,3.4,0.6,4.8,1.6
		c1.6,1.2,2.4,2.8,2.5,4.8c0.1,1.7-0.3,3.4-1,4.9c-1.2,2.9-3,5.5-4.9,8c-3.5,4.4-7.6,8.2-12.6,10.8c-0.2,0.1-0.3,0.3-0.4,0.4
		c-0.1,0.8-0.3,1.5-0.2,2.3c0.1,4.3,0.4,8.6,0.5,13c0.1,5.6,0.1,11.1,0.1,16.7c0,0.2,0,0.4,0,0.6c4.1,0,8.2,0,12.2,0
		c-0.3,0-0.6,0.1-0.9,0.1c-3.5,0-7,0-10.5,0c-0.2,0-0.4,0-0.6,0c0,0,0,0.1,0,0.1c0.1,0,0.2,0,0.3,0c3.7,0,7.4,0,11.1,0
		c0.2,0,0.4,0,0.6,0c0.6-0.2,1.2-0.4,1.4-1.2c0.2-0.5,0.5-1,0.6-1.5c0.2-1.7,0.5-3.4,0.6-5c0.1-3.5,0.6-7,1.4-10.4
		c1.4-6.1,3.6-11.9,6-17.7c0.4-1.1,1-2.1,1.5-3.2c0.2-0.3,0.2-0.7,0.3-1.1c0.3-0.6,0.6-1.2,1-1.8
		C1215.5,463.9,1215.9,463.1,1216.3,462.4z M1184.7,469.8c0-0.3,0-0.3,0-0.4c-0.4-2.3-0.7-4.6-1.1-6.8c-0.7-3.4-1.9-6.5-3.9-9.3
		c-0.6-0.9-1.4-1.6-2.2-2.3c-0.7-0.6-1.5-0.5-2,0.1c-0.5,0.5-0.9,1.1-1.1,1.8c-1,2.9-0.5,5.6,0.7,8.3c1.4,2.9,3.6,5.1,6.3,6.7
		C1182.5,468.5,1183.6,469.1,1184.7,469.8z M1186,506.6C1186,506.6,1186,506.6,1186,506.6c-4-0.1-8-0.1-12.1-0.1c0,0,0,0,0,0.1
		C1178,506.6,1182,506.6,1186,506.6z"/>
	<path class="st14" d="M1202.6,518.7c1.7,0.6,2.7,1.7,2.7,3.4c0,1.8-1,2.9-2.7,3.6c1.6,0.5,2.5,1.5,2.7,3.1c0.2,2-1.4,3.9-3.4,3.9
		c-3.1,0-6.2,0-9.3,0c-6.1,0-12.2,0-18.3,0c-1.9,0-3.2-1.1-3.6-3c-0.3-1.7,0.5-2.6,2.1-3.6c0.2-0.1,0.4-0.2,0.7-0.3
		c-0.3-0.2-0.5-0.3-0.7-0.4c-1.8-0.8-2.7-2.7-2-4.4c0.3-0.9,1-1.5,1.9-1.9c0.2-0.1,0.4-0.2,0.7-0.4c-1.6-0.5-2.5-1.5-2.7-3
		c-0.1-0.8,0-1.7,0.5-2.2c0.8-0.8,1.8-1.6,3-1.6c0.3,0,0.6,0,0.9,0c8.7,0,17.4,0,26.1,0c0.3,0,0.6,0,1,0c0,0,0-0.1,0-0.1
		c-9.5,0-19,0-28.5,0c0,0,0-0.1,0-0.1c0.3,0,0.5,0,0.8,0c9.1,0,18.2,0,27.3,0c1.6,0,3.2,1.1,3.6,2.8c0.4,1.7-0.6,3.4-2.2,4
		C1202.9,518.6,1202.8,518.6,1202.6,518.7z M1193.7,527.9c-0.4,0.1-0.8,0.2-1.1,0.2c-4.7,0-9.4,0-14.1,0c-0.2,0-0.4,0-0.6,0
		c0,0,0,0.1,0,0.1c0.3,0,0.5,0,0.8,0c4.6,0,9.3,0,13.9,0c0.2,0,0.5,0,0.7,0c0.6-0.1,1.2-0.3,1.5-0.9c0,0-0.1-0.1-0.1-0.1
		c0.1-0.4,0.3-0.9,0.3-1.3c-0.1-1.1-0.8-1.7-2.1-1.7c-4.9,0-9.7,0-14.6,0c-0.2,0-0.3,0-0.5,0c-0.9,0.1-1.6,0.8-1.7,1.7
		c-0.1,1,0.5,1.8,1.4,2c0.3,0.1,0.6,0.1,1,0.1c4.3,0,8.6,0,13,0C1192.2,528,1192.9,528,1193.7,527.9z M1177.7,520.3c0,0,0,0.1,0,0.1
		c0.2,0,0.4,0,0.6,0c6.6,0,13.2,0,19.7,0c1.4,0,1.8-0.3,2.1-1.6c0.2-0.8-0.1-1.8-0.9-2.2c-0.4-0.2-0.8-0.2-1.2-0.2
		c-6.7,0-13.4,0-20.1,0c-0.3,0-0.6,0-0.8,0.1c-0.7,0.2-1.1,0.6-1.3,1.3c-0.3,1.2,0.6,2.4,1.9,2.4c6.8,0,13.7,0,20.5,0
		c0.2,0,0.4,0,0.5,0c0,0,0,0.1,0,0.1C1191.7,520.3,1184.7,520.3,1177.7,520.3z"/>
	<path class="st14" d="M1176.8,534.1c7.2,0,14.3,0,21.4,0c0,0,0,0,0,0c-6.9,0-13.7,0-20.6,0c0,0,0-0.1,0-0.1c7.1,0,14.2,0,21.5,0
		c-2.4,3.2-5.5,5.2-9.3,5.6C1184.4,540.2,1180.2,538.2,1176.8,534.1z"/>
	<path class="st14" d="M1160.6,408.3c-0.5,0.5-1,1-1.6,1.4c0,0,0.1,0.1,0.1,0.1C1159.7,409.3,1160.2,408.8,1160.6,408.3
		C1160.6,408.3,1160.6,408.3,1160.6,408.3z"/>
	<path class="st14" d="M1202.3,506.4c0.5-0.3,1-0.7,1.5-1c-0.1,0.8-0.8,1-1.4,1.2c-0.2,0.1-0.4,0-0.6,0c-3.7,0-7.4,0-11.1,0
		c-0.1,0-0.2,0-0.3,0c0,0,0-0.1,0-0.1c0.2,0,0.4,0,0.6,0c3.5,0,7,0,10.5,0C1201.7,506.5,1202,506.4,1202.3,506.4z"/>
	<path class="st14" d="M1191.1,468.1c0.7-0.5,1.4-1,2.1-1.5c0.9-0.8,1.8-1.6,2.8-2.5c0.3-0.3,0.6-0.6,0.9-0.8
		c-0.1,0.2-0.1,0.3-0.2,0.5c-1.5,1.7-3.2,3.1-5.2,4.3c-0.1,0.1-0.3,0.1-0.4,0.2C1191,468.2,1191,468.2,1191.1,468.1
		C1191.1,468.2,1191.1,468.1,1191.1,468.1z"/>
	<path class="st14" d="M1186,506.6c-4,0-8,0-12.1,0c0,0,0,0,0-0.1C1178,506.6,1182,506.6,1186,506.6
		C1186,506.6,1186,506.6,1186,506.6z"/>
	<path class="st14" d="M1193.7,527.9c0.3-0.2,0.6-0.5,0.9-0.7c0,0,0.1,0.1,0.1,0.1c-0.4,0.5-0.9,0.8-1.5,0.9c-0.2,0-0.5,0-0.7,0
		c-4.6,0-9.3,0-13.9,0c-0.3,0-0.5,0-0.8,0c0,0,0-0.1,0-0.1c0.2,0,0.4,0,0.6,0c4.7,0,9.4,0,14.1,0
		C1192.9,528.2,1193.3,528,1193.7,527.9z"/>
</g>
<path class="st15" d="M27.3,428.8H47c4.3,0,7.7,2.3,7.7,5.1v69.4c0,2.8-3.5,5.1-7.7,5.1H27.3"/>
<path class="st16" d="M0.3,389h29.2c6.4,0,11.5,4.5,11.5,10.1v138.7c0,5.6-5.2,10.1-11.5,10.1H0.3"/>
</svg>
